<svg width="21" height="37" viewBox="0 0 21 37" fill="none" xmlns="http://www.w3.org/2000/svg">
<mask id="mask0_2041_5523" style="mask-type:luminance" maskUnits="userSpaceOnUse" x="7" y="10" width="10" height="4">
<path d="M7.19873 10.2473C7.19873 10.2473 9.13415 12.9549 11.2401 13.6518C11.2401 13.6518 15.2513 12.99 16.1588 11.6863C16.1588 11.6863 13.2156 12.1025 12.1877 10.7086C12.1877 10.7086 10.5782 10.3325 9.16424 10.1671C8.30182 10.0668 7.51462 10.0467 7.20374 10.2423" fill="white"/>
</mask>
<g mask="url(#mask0_2041_5523)">
<path d="M7.23347 9.95147L6.86572 13.1494L15.8668 14.1845L16.2345 10.9866L7.23347 9.95147Z" fill="url(#paint0_linear_2041_5523)"/>
</g>
<mask id="mask1_2041_5523" style="mask-type:luminance" maskUnits="userSpaceOnUse" x="1" y="15" width="20" height="6">
<path d="M11.3653 15.9582C11.3653 15.9582 2.21968 15.8479 1.979 16.4997C1.979 16.4997 10.0065 20.7115 16.4596 20.5461C16.4596 20.5461 19.9443 17.4223 20.1299 16.7254C20.1299 16.7254 15.1158 18.1243 11.3603 15.9532" fill="white"/>
</mask>
<g mask="url(#mask1_2041_5523)">
<path d="M2.19317 14.6711L1.60889 19.752L19.5512 21.8153L20.1355 16.7344L2.19317 14.6711Z" fill="url(#paint1_linear_2041_5523)"/>
</g>
<mask id="mask2_2041_5523" style="mask-type:luminance" maskUnits="userSpaceOnUse" x="0" y="19" width="12" height="3">
<path d="M0.86084 19.4836C4.68656 21.74 11.0394 21.2185 11.0394 21.2185C8.31171 20.1305 6.09049 19.6491 4.42081 19.4536C2.09931 19.1878 0.86084 19.4836 0.86084 19.4836Z" fill="white"/>
</mask>
<g mask="url(#mask2_2041_5523)">
<path d="M0.908396 19.0546L0.652344 21.2812L10.8937 22.459L11.1498 20.2324L0.908396 19.0546Z" fill="url(#paint2_linear_2041_5523)"/>
</g>
<mask id="mask3_2041_5523" style="mask-type:luminance" maskUnits="userSpaceOnUse" x="9" y="22" width="11" height="6">
<path d="M9.83594 24.3222C15.7274 26.2977 16.1185 27.2303 16.1185 27.2303C18.1342 27.3557 19.3576 25.0192 19.3576 25.0192C17.9537 23.8759 15.4015 22.7578 15.4015 22.7578L9.83594 24.3222Z" fill="white"/>
</mask>
<g mask="url(#mask3_2041_5523)">
<path d="M10.0838 22.1488L9.58545 26.4824L19.0597 27.5719L19.5581 23.2383L10.0838 22.1488Z" fill="url(#paint3_linear_2041_5523)"/>
</g>
<mask id="mask4_2041_5523" style="mask-type:luminance" maskUnits="userSpaceOnUse" x="0" y="25" width="10" height="4">
<path d="M0.605469 28.4683C1.53808 28.0572 9.67588 27.4154 9.67588 27.4154C8.01623 26.558 6.64238 26.1468 5.51422 26.0164C1.63836 25.5702 0.605469 28.4683 0.605469 28.4683Z" fill="white"/>
</mask>
<g mask="url(#mask4_2041_5523)">
<path d="M0.947528 25.4939L0.60498 28.4727L9.43668 29.4883L9.77923 26.5095L0.947528 25.4939Z" fill="url(#paint4_linear_2041_5523)"/>
</g>
<mask id="mask5_2041_5523" style="mask-type:luminance" maskUnits="userSpaceOnUse" x="6" y="29" width="9" height="5">
<path d="M6.15088 29.7125C6.15088 29.7125 11.0195 31.3722 11.9672 33.6435C11.9672 33.6435 14.6848 33.112 14.8853 32.3449C14.8853 32.3449 13.5767 29.9782 11.9571 29.0557C11.9571 29.0557 6.26119 29.1359 6.15589 29.7075" fill="white"/>
</mask>
<g mask="url(#mask5_2041_5523)">
<path d="M6.30186 28.4136L5.78174 32.9365L14.6981 33.9619L15.2182 29.4389L6.30186 28.4136Z" fill="url(#paint5_linear_2041_5523)"/>
</g>
<mask id="mask6_2041_5523" style="mask-type:luminance" maskUnits="userSpaceOnUse" x="3" y="32" width="7" height="3">
<path d="M6.20073 32.4447C3.75388 32.8559 3.56836 34.8414 3.56836 34.8414C5.24806 34.1495 9.68048 33.7534 9.68048 33.7534C9.68048 33.7534 8.11109 32.6001 6.76231 32.4447C6.56676 32.4247 6.37623 32.4196 6.19572 32.4447" fill="white"/>
</mask>
<g mask="url(#mask6_2041_5523)">
<path d="M3.83734 32.1111L3.52344 34.8408L9.47599 35.5253L9.7899 32.7956L3.83734 32.1111Z" fill="url(#paint6_linear_2041_5523)"/>
</g>
<mask id="mask7_2041_5523" style="mask-type:luminance" maskUnits="userSpaceOnUse" x="7" y="9" width="8" height="3">
<path d="M7.19886 10.2479C10.6235 13.3566 14.5645 9.58103 14.5645 9.58103C14.043 9.40053 13.5166 9.29022 12.9901 9.23005C9.99168 8.88408 7.19385 10.2479 7.19385 10.2479" fill="white"/>
</mask>
<g mask="url(#mask7_2041_5523)">
<path d="M7.38614 8.58714L6.88721 12.9258L14.0851 13.7535L14.584 9.41487L7.38614 8.58714Z" fill="url(#paint7_linear_2041_5523)"/>
</g>
<mask id="mask8_2041_5523" style="mask-type:luminance" maskUnits="userSpaceOnUse" x="1" y="10" width="18" height="8">
<path d="M4.29549 12.5293C4.29549 12.5293 2.06424 15.5779 1.979 16.5004C1.979 16.5004 12.9648 19.1027 18.746 13.5422C18.746 13.5422 18.3198 12.1934 16.7454 10.8496C16.7454 10.8496 10.7536 15.7784 4.29549 12.5293Z" fill="white"/>
</mask>
<g mask="url(#mask8_2041_5523)">
<path d="M2.79841 9.24949L1.81201 17.8271L18.0508 19.6946L19.0372 11.1169L2.79841 9.24949Z" fill="url(#paint8_linear_2041_5523)"/>
</g>
<mask id="mask9_2041_5523" style="mask-type:luminance" maskUnits="userSpaceOnUse" x="0" y="16" width="21" height="9">
<path d="M0.860956 19.4832C0.860956 19.4832 0.244229 21.1629 0.269299 23.2437C0.269299 23.2437 11.5359 28.4633 20.521 19.9946C20.521 19.9946 20.6564 17.9689 20.14 16.7305C20.14 16.7305 13.8925 24.3267 0.86597 19.4882" fill="white"/>
</mask>
<g mask="url(#mask9_2041_5523)">
<path d="M1.00756 14.5283L-0.436523 27.0859L19.4385 29.3715L20.8826 16.8138L1.00756 14.5283Z" fill="url(#paint9_linear_2041_5523)"/>
</g>
<mask id="mask10_2041_5523" style="mask-type:luminance" maskUnits="userSpaceOnUse" x="0" y="25" width="20" height="7">
<path d="M10.9143 27.3501C3.83953 26.8587 0.956452 27.666 0.605469 28.4682C0.605469 28.4682 0.99155 30.7496 1.80383 31.8828C1.80383 31.8828 2.58602 29.5713 9.68089 30.2281C14.6699 30.544 17.1568 28.398 17.1568 28.398C17.1568 28.398 19.5736 25.7255 19.363 25.0186C19.363 25.0186 17.9992 27.8465 10.9244 27.3551" fill="white"/>
</mask>
<g mask="url(#mask10_2041_5523)">
<path d="M1.24157 22.9381L0.233398 31.7051L18.634 33.8211L19.6422 25.0541L1.24157 22.9381Z" fill="url(#paint10_linear_2041_5523)"/>
</g>
<mask id="mask11_2041_5523" style="mask-type:luminance" maskUnits="userSpaceOnUse" x="3" y="32" width="12" height="5">
<path d="M9.74566 33.2824C7.15842 32.9213 4.89708 33.147 3.56836 34.8417C3.56836 34.8417 4.98733 36.5966 5.95003 36.9627C5.95003 36.9627 7.08822 35.7944 9.09384 36.1554C11.0944 36.5164 12.4934 36.4813 13.2906 35.7292C14.0377 35.0272 14.5692 34.1899 14.88 32.3447C14.88 32.3447 12.3329 33.6384 9.74566 33.2773" fill="white"/>
</mask>
<g mask="url(#mask11_2041_5523)">
<path d="M3.99735 31.1019L3.35693 36.6709L14.2359 37.9219L14.8763 32.3529L3.99735 31.1019Z" fill="url(#paint11_linear_2041_5523)"/>
</g>
<mask id="mask12_2041_5523" style="mask-type:luminance" maskUnits="userSpaceOnUse" x="9" y="2" width="3" height="8">
<path d="M9.97665 2.5359C9.97665 2.5359 9.80116 4.21561 9.84629 4.66186C9.89141 5.1031 10.5533 6.39672 10.3978 7.75553C10.2424 9.11433 9.90645 9.33495 9.90645 9.33495C10.6285 9.67591 11.6263 9.15946 11.6263 9.15946C11.6263 9.15946 11.7867 7.60511 11.6564 7.0686C11.3756 6.42179 11.0396 4.70699 10.9243 4.21561C10.809 3.72423 10.9644 2.63117 10.9644 2.63117C10.804 2.48075 10.6435 2.42058 10.4981 2.40053C10.2023 2.36543 9.97164 2.52588 9.97164 2.52588" fill="white"/>
</mask>
<g mask="url(#mask12_2041_5523)">
<path d="M12.3505 2.20163L8.71289 2.4375L9.19955 9.94281L12.8371 9.70694L12.3505 2.20163Z" fill="url(#paint12_linear_2041_5523)"/>
</g>
<mask id="mask13_2041_5523" style="mask-type:luminance" maskUnits="userSpaceOnUse" x="11" y="0" width="5" height="7">
<path d="M11.7215 6.9885C16.5099 4.50153 15.467 0.189453 15.467 0.189453C10.819 2.13992 11.7215 6.9885 11.7215 6.9885Z" fill="white"/>
</mask>
<g mask="url(#mask13_2041_5523)">
<path d="M16.671 -1.32583L9.04443 0.0615234L10.5825 8.51684L18.2091 7.12948L16.671 -1.32583Z" fill="url(#paint13_linear_2041_5523)"/>
</g>
<mask id="mask14_2041_5523" style="mask-type:luminance" maskUnits="userSpaceOnUse" x="6" y="2" width="5" height="5">
<path d="M6.02539 2.68652C7.08837 6.23145 10.1269 6.08103 10.1269 6.08103C9.54525 3.32832 7.18865 2.80686 6.33626 2.7116C6.14071 2.69154 6.02539 2.69154 6.02539 2.69154" fill="white"/>
</mask>
<g mask="url(#mask14_2041_5523)">
<path d="M6.02535 2.67322L5.63525 6.06543L10.0636 6.57467L10.4536 3.18246L6.02535 2.67322Z" fill="url(#paint14_linear_2041_5523)"/>
</g>
<defs>
<linearGradient id="paint0_linear_2041_5523" x1="7.55854" y1="12.3387" x2="16.5701" y2="13.375" gradientUnits="userSpaceOnUse">
<stop stop-color="#FF7F02"/>
<stop offset="1" stop-color="#FF7702"/>
</linearGradient>
<linearGradient id="paint1_linear_2041_5523" x1="1.39928" y1="16.4238" x2="19.2136" y2="18.4724" gradientUnits="userSpaceOnUse">
<stop stop-color="#FF7F02"/>
<stop offset="1" stop-color="#FF7702"/>
</linearGradient>
<linearGradient id="paint2_linear_2041_5523" x1="0.287493" y1="19.3497" x2="10.4542" y2="20.5188" gradientUnits="userSpaceOnUse">
<stop stop-color="#FF7F02"/>
<stop offset="1" stop-color="#FF7702"/>
</linearGradient>
<linearGradient id="paint3_linear_2041_5523" x1="10.1986" y1="24.9053" x2="19.68" y2="25.9956" gradientUnits="userSpaceOnUse">
<stop stop-color="#FF7F02"/>
<stop offset="1" stop-color="#FF7702"/>
</linearGradient>
<linearGradient id="paint4_linear_2041_5523" x1="0.103115" y1="25.9735" x2="8.9385" y2="26.9895" gradientUnits="userSpaceOnUse">
<stop stop-color="#FF7F02"/>
<stop offset="1" stop-color="#FF7702"/>
</linearGradient>
<linearGradient id="paint5_linear_2041_5523" x1="6.56628" y1="31.5003" x2="15.493" y2="32.5268" gradientUnits="userSpaceOnUse">
<stop stop-color="#FF7F02"/>
<stop offset="1" stop-color="#FF7702"/>
</linearGradient>
<linearGradient id="paint6_linear_2041_5523" x1="3.40869" y1="32.9552" x2="9.3207" y2="33.635" gradientUnits="userSpaceOnUse">
<stop stop-color="#FF7F02"/>
<stop offset="1" stop-color="#FF7702"/>
</linearGradient>
<linearGradient id="paint7_linear_2041_5523" x1="6.62375" y1="9.96504" x2="13.8213" y2="10.7927" gradientUnits="userSpaceOnUse">
<stop stop-color="#FFF80A"/>
<stop offset="1" stop-color="#FF7702"/>
</linearGradient>
<linearGradient id="paint8_linear_2041_5523" x1="3.00226" y1="14.5447" x2="19.2309" y2="16.411" gradientUnits="userSpaceOnUse">
<stop stop-color="#FFF80A"/>
<stop offset="1" stop-color="#FF7702"/>
</linearGradient>
<linearGradient id="paint9_linear_2041_5523" x1="0.386467" y1="20.7307" x2="20.0997" y2="22.9977" gradientUnits="userSpaceOnUse">
<stop stop-color="#FFF80A"/>
<stop offset="1" stop-color="#FF7702"/>
</linearGradient>
<linearGradient id="paint10_linear_2041_5523" x1="0.922023" y1="27.5786" x2="19.0757" y2="29.6662" gradientUnits="userSpaceOnUse">
<stop stop-color="#FFF80A"/>
<stop offset="1" stop-color="#FF7702"/>
</linearGradient>
<linearGradient id="paint11_linear_2041_5523" x1="4.20293" y1="34.6691" x2="15.0938" y2="35.9215" gradientUnits="userSpaceOnUse">
<stop stop-color="#FFF80A"/>
<stop offset="1" stop-color="#FF7702"/>
</linearGradient>
<linearGradient id="paint12_linear_2041_5523" x1="11.4345" y1="8.71821" x2="11.0443" y2="2.70105" gradientUnits="userSpaceOnUse">
<stop stop-color="#BD6E29"/>
<stop offset="1" stop-color="#603815"/>
</linearGradient>
<linearGradient id="paint13_linear_2041_5523" x1="10.732" y1="3.63814" x2="15.5594" y2="2.75999" gradientUnits="userSpaceOnUse">
<stop stop-color="#A9F80A"/>
<stop offset="1" stop-color="#079445"/>
</linearGradient>
<linearGradient id="paint14_linear_2041_5523" x1="5.38525" y1="3.5473" x2="9.78217" y2="4.05293" gradientUnits="userSpaceOnUse">
<stop stop-color="#A9F80A"/>
<stop offset="1" stop-color="#079445"/>
</linearGradient>
</defs>
</svg>
