<svg width="32" height="32" viewBox="0 0 32 32" fill="none" xmlns="http://www.w3.org/2000/svg">
<g clip-path="url(#clip0_545_12976)">
<path d="M18.3616 15.8371L17.8296 14.1258C17.7872 13.9907 17.681 13.8849 17.5454 13.8427L15.8335 13.3105L13.0437 12.4435C12.887 12.3946 12.7716 12.2612 12.7457 12.0989C12.7202 11.9365 12.789 11.7739 12.923 11.6793L16.7719 8.95687C16.8876 8.87514 16.9558 8.74145 16.9539 8.59962L16.8935 3.88649C16.891 3.72219 16.9822 3.57109 17.1289 3.49638C17.2752 3.42167 17.4513 3.43655 17.583 3.53514L21.3606 6.35413C21.4743 6.43924 21.6229 6.46255 21.7574 6.41677L26.2209 4.90321C26.3765 4.85041 26.5486 4.89057 26.6646 5.00685C26.7809 5.12284 26.8211 5.29501 26.7683 5.45033L25.2547 9.91404C25.2087 10.0486 25.2322 10.1969 25.3171 10.3109L28.1363 14.0885C28.2346 14.2202 28.2498 14.396 28.1754 14.5423C28.1007 14.6887 27.9499 14.78 27.7856 14.778L23.0719 14.7176C22.9298 14.7156 22.7961 14.7842 22.7143 14.9002L19.9922 18.7485C19.8976 18.8825 19.735 18.9513 19.5729 18.9257C19.4108 18.8999 19.2772 18.7845 19.2286 18.6275L18.3616 15.8371Z" fill="#FFEB09"/>
<path d="M17.8295 14.1259L18.3615 15.8372L8.26819 25.9305L5.74072 23.4041L15.8335 13.3105L17.5453 13.8428C17.681 13.8849 17.7871 13.9908 17.8295 14.1259Z" fill="#20562C"/>
<path d="M8.26833 25.9306L3.0505 31.1485C2.35256 31.8461 1.22181 31.8461 0.523875 31.1485H0.523033C-0.174344 30.4505 -0.174344 29.3192 0.523033 28.6213L5.74086 23.4043L8.26833 25.9306Z" fill="#F9B459"/>
<path d="M11.1872 6.06756L10.4844 5.87348L10.6788 5.17049C10.7611 4.86491 10.5813 4.55007 10.276 4.46609C9.97102 4.38211 9.65534 4.56018 9.56967 4.86491L9.3756 5.56735L8.67289 5.37327C8.36703 5.28929 8.05078 5.46905 7.96624 5.7749C7.8817 6.08076 8.06089 6.39729 8.36675 6.48239L9.06974 6.67647L8.87539 7.3789C8.79085 7.68504 8.9706 8.00185 9.27674 8.08639C9.58287 8.17121 9.89968 7.99145 9.98422 7.68532L10.1786 6.98232L10.8813 7.1764C11.0796 7.23201 11.2928 7.17724 11.4396 7.03288C11.5865 6.88851 11.645 6.67647 11.5927 6.47705C11.5408 6.27764 11.386 6.12148 11.1872 6.06756Z" fill="#20562C"/>
<path d="M26.5904 24.9546L26.2307 24.8551L26.3298 24.4956C26.4141 24.1892 26.234 23.8727 25.9279 23.7884C25.6215 23.7039 25.3049 23.8839 25.2207 24.1901L25.1215 24.549L24.762 24.4499C24.4559 24.3653 24.1391 24.5451 24.0546 24.8512C23.97 25.1576 24.15 25.4742 24.4562 25.5587L24.8162 25.6581L24.7168 26.0182C24.6604 26.217 24.7146 26.4308 24.8592 26.5782C25.0039 26.726 25.2165 26.7847 25.4164 26.7321C25.6161 26.6796 25.7726 26.5237 25.8259 26.3243L25.9251 25.9643L26.2846 26.0634C26.5907 26.148 26.9075 25.9682 26.9921 25.6621C27.0769 25.3559 26.8971 25.0391 26.591 24.9546H26.5904Z" fill="#20562C"/>
<path d="M31.5729 9.0765L30.9042 8.89197L31.0887 8.22324C31.1454 8.0244 31.0912 7.81066 30.9466 7.66293C30.8019 7.5152 30.589 7.4565 30.3891 7.5093C30.1891 7.56182 30.0329 7.7177 29.9799 7.91767L29.7953 8.58612L29.1266 8.40187C28.8216 8.3207 28.5081 8.50074 28.4242 8.80491C28.3402 9.10936 28.5174 9.42421 28.8207 9.51099L29.4889 9.69524L29.3044 10.364C29.2198 10.6701 29.3993 10.9869 29.7055 11.0715C30.0119 11.156 30.3287 10.9765 30.4132 10.6704L30.5977 10.0017L31.2668 10.1859C31.4656 10.2426 31.6796 10.1884 31.8274 10.0438C31.9751 9.89914 32.0335 9.68625 31.981 9.48628C31.9282 9.28658 31.7723 9.13014 31.5726 9.07706L31.5729 9.0765Z" fill="#20562C"/>
<path d="M23.3963 1.61777L22.9231 1.48717L23.0537 1.0142C23.1349 0.709183 22.9551 0.395742 22.6507 0.311765C22.3465 0.228069 22.0314 0.405011 21.9449 0.708621L21.814 1.18131L21.3413 1.05099C21.1424 0.994257 20.9284 1.04846 20.7807 1.19339C20.6332 1.33803 20.5745 1.55064 20.6271 1.75061C20.6799 1.95059 20.8357 2.10675 21.0354 2.16011L21.5078 2.29015L21.3775 2.76312C21.293 3.06926 21.4725 3.38607 21.7786 3.47089C22.085 3.55542 22.4018 3.37567 22.4864 3.06954L22.617 2.59629L23.0905 2.7266C23.3955 2.80777 23.7089 2.62802 23.7929 2.32385C23.8769 2.0194 23.6997 1.70427 23.3963 1.61777Z" fill="#20562C"/>
</g>
<defs>
<clipPath id="clip0_545_12976">
<rect width="32" height="32" fill="white"/>
</clipPath>
</defs>
</svg>
