<svg width="32" height="32" viewBox="0 0 32 32" fill="none" xmlns="http://www.w3.org/2000/svg">
<g clip-path="url(#clip0_545_12991)">
<path d="M31.9999 12.834V28.4613C31.9999 30.1988 30.5917 31.607 28.8541 31.607H3.14574C1.40852 31.607 0 30.1988 0 28.4613V12.834H31.9999Z" fill="#20562C"/>
<path d="M25.3312 4.05859H28.8541C30.5917 4.05859 31.9999 5.46711 31.9999 7.20433V12.8335H0V7.20433C0 5.46711 1.40852 4.05859 3.14574 4.05859H25.3312Z" fill="#F9B459"/>
<path d="M7.02008 7.65396C6.586 7.65396 6.23364 7.3019 6.23364 6.86752V1.25128C6.23364 0.816896 6.586 0.464844 7.02008 0.464844C7.45446 0.464844 7.80651 0.816896 7.80651 1.25128V6.86752C7.80651 7.3019 7.45446 7.65396 7.02008 7.65396Z" fill="#20562C"/>
<path d="M25.3309 7.65396C24.8965 7.65396 24.5444 7.3019 24.5444 6.86752V1.25128C24.5444 0.816896 24.8965 0.464844 25.3309 0.464844C25.7649 0.464844 26.1173 0.816896 26.1173 1.25128V6.86752C26.1173 7.3019 25.7649 7.65396 25.3309 7.65396Z" fill="#20562C"/>
</g>
<defs>
<clipPath id="clip0_545_12991">
<rect width="32" height="32" fill="white"/>
</clipPath>
</defs>
</svg>
