<svg width="32" height="32" viewBox="0 0 32 32" fill="none" xmlns="http://www.w3.org/2000/svg">
<g clip-path="url(#clip0_545_12967)">
<path d="M32 9.73438V27.1513C32 28.4298 31.0121 29.4663 29.793 29.4663H2.20696C0.987939 29.4663 0 28.4298 0 27.1513V9.73438H32ZM15.0217 25.5584V13.5219H3.30044V25.5584H15.0217Z" fill="#F9B459"/>
<path d="M32 4.91067V9.73386H0V4.91067C0 3.63216 0.987939 2.5957 2.20696 2.5957H29.793C31.0121 2.5957 32 3.63216 32 4.91067ZM14.3446 6.06856C14.3446 5.21604 13.6864 4.52471 12.8736 4.52471C12.0611 4.52471 11.4021 5.21604 11.4021 6.06856C11.4021 6.92136 12.0611 7.61188 12.8736 7.61188C13.6864 7.61188 14.3446 6.92054 14.3446 6.06856ZM9.5636 6.06856C9.5636 5.21604 8.9046 4.52471 8.09183 4.52471C7.27933 4.52471 6.62034 5.21604 6.62034 6.06856C6.62034 6.92136 7.27933 7.61188 8.09183 7.61188C8.9046 7.61188 9.5636 6.92054 9.5636 6.06856ZM4.7818 6.06856C4.7818 5.21604 4.12281 4.52471 3.31031 4.52471C2.49753 4.52471 1.83936 5.21604 1.83936 6.06856C1.83936 6.92136 2.49753 7.61188 3.31031 7.61188C4.12281 7.61188 4.7818 6.92054 4.7818 6.06856Z" fill="#20562C"/>
<path d="M15.0218 13.5215V25.5579H3.30054V13.5215H15.0218ZM12.4283 23.7866V21.3924C12.4286 20.5223 11.7235 19.8167 10.8534 19.8167C10.4579 20.3559 9.82932 20.6744 9.16073 20.6744C8.49215 20.6744 7.86359 20.3559 7.4683 19.8167C6.59823 19.817 5.89319 20.5223 5.89346 21.3924V23.7866H12.4283ZM10.911 17.0429C10.911 16.0763 10.1273 15.2926 9.16073 15.2926C8.19418 15.2926 7.41073 16.0763 7.41073 17.0429C7.41073 18.0094 8.19418 18.7929 9.16073 18.7929C10.1276 18.7931 10.9113 18.0094 10.911 17.0429Z" fill="#20562C"/>
<path d="M12.8736 4.52539C13.6864 4.52539 14.3445 5.21673 14.3445 6.06925C14.3445 6.92205 13.6864 7.61256 12.8736 7.61256C12.0611 7.61256 11.4021 6.92122 11.4021 6.06925C11.4021 5.21755 12.0611 4.52539 12.8736 4.52539Z" fill="#FFEB09"/>
<path d="M12.4281 21.3921V23.7863H5.89331V21.3921C5.89304 20.522 6.59808 19.8167 7.46815 19.8164C7.86343 20.3556 8.49199 20.6741 9.16058 20.6741C9.82917 20.6741 10.4577 20.3556 10.8533 19.8164C11.7234 19.8164 12.4284 20.522 12.4281 21.3921Z" fill="#FFEB09"/>
<path d="M10.9109 17.0432C10.9109 18.0098 10.1272 18.7932 9.16064 18.7932C8.19409 18.7932 7.41064 18.0098 7.41064 17.0432C7.41064 16.0767 8.19409 15.293 9.16064 15.293C10.1272 15.293 10.9109 16.0767 10.9109 17.0432Z" fill="#FFEB09"/>
<path d="M8.09185 4.52539C8.90463 4.52539 9.56362 5.21673 9.56362 6.06925C9.56362 6.92205 8.90463 7.61256 8.09185 7.61256C7.27935 7.61256 6.62036 6.92122 6.62036 6.06925C6.62036 5.21755 7.27935 4.52539 8.09185 4.52539Z" fill="#FFEB09"/>
<path d="M3.3103 4.52539C4.1228 4.52539 4.78179 5.21673 4.78179 6.06925C4.78179 6.92205 4.1228 7.61256 3.3103 7.61256C2.49752 7.61256 1.83936 6.92122 1.83936 6.06925C1.83936 5.21755 2.49752 4.52539 3.3103 4.52539Z" fill="#FFEB09"/>
<path d="M23.1678 16.8181H16.9784C16.6684 16.8181 16.417 16.5667 16.417 16.2567C16.417 15.9464 16.6684 15.6953 16.9784 15.6953H23.1678C23.4778 15.6953 23.7292 15.9464 23.7292 16.2567C23.7292 16.5667 23.4778 16.8181 23.1678 16.8181Z" fill="#FFEB09"/>
<path d="M28.6996 20.1013H16.9784C16.6684 20.1013 16.417 19.85 16.417 19.5399C16.417 19.2299 16.6684 18.9785 16.9784 18.9785H28.6996C29.0096 18.9785 29.261 19.2299 29.261 19.5399C29.261 19.85 29.0096 20.1013 28.6996 20.1013Z" fill="#FFEB09"/>
<path d="M28.6996 23.3845H16.9784C16.6684 23.3845 16.417 23.1332 16.417 22.8231C16.417 22.5131 16.6684 22.2617 16.9784 22.2617H28.6996C29.0096 22.2617 29.261 22.5131 29.261 22.8231C29.261 23.1332 29.0096 23.3845 28.6996 23.3845Z" fill="#FFEB09"/>
</g>
<defs>
<clipPath id="clip0_545_12967">
<rect width="32" height="32" fill="white"/>
</clipPath>
</defs>
</svg>
