<svg width="32" height="32" viewBox="0 0 32 32" fill="none" xmlns="http://www.w3.org/2000/svg">
<g clip-path="url(#clip0_545_12988)">
<path d="M23.9514 16.0537L29.1351 28.3979L22.9849 25.7183L20.6127 32.0002L16.044 21.1496L14.8579 18.382L16.0001 17.4155L18.2844 19.3045C18.6863 19.6558 19.2969 19.6148 19.6481 19.2128C19.7567 19.0887 19.8317 18.9387 19.8659 18.7773L20.6127 15.9219L23.556 16.1415C23.6937 16.1545 23.832 16.1238 23.9514 16.0537Z" fill="#20562C"/>
<path d="M14.8578 18.3819L16.0439 21.1495H15.9561L11.3873 32.0001L9.01516 25.7182L2.86499 28.3979L8.0487 16.0536C8.16801 16.1237 8.30633 16.1545 8.44406 16.1415L11.3873 15.9219L12.1342 18.7773C12.272 19.318 12.822 19.6447 13.3627 19.5069C13.5084 19.4698 13.644 19.4006 13.7595 19.3044L14.8578 18.3819Z" fill="#20562C"/>
<path d="M14.8579 18.7332L13.7597 19.6997C13.3307 20.0566 12.6936 19.9983 12.3367 19.5694C12.2405 19.4538 12.1714 19.3182 12.1342 19.1726L11.3874 16.2732L8.4441 16.4928H8.04874C7.54281 16.3228 7.27046 15.7747 7.44056 15.2688C7.45132 15.2368 7.46368 15.2056 7.47772 15.1749L8.57595 12.4073L6.07192 10.8698C5.59878 10.5739 5.45516 9.95046 5.75106 9.47732C5.83228 9.34741 5.94201 9.23768 6.07192 9.15645L8.57595 7.575L7.47764 4.85143C7.25717 4.36534 7.47243 3.79256 7.95852 3.57209C8.11054 3.50314 8.27779 3.47472 8.44402 3.4896L11.3873 3.66534L12.1341 0.809922C12.272 0.269177 12.8219 -0.0574902 13.3627 0.0803238C13.5084 0.117405 13.644 0.186606 13.7595 0.282798L15.9999 2.12786L18.2844 0.238822C18.6862 -0.112481 19.2968 -0.0714482 19.6481 0.330474C19.7566 0.454667 19.8316 0.604589 19.8658 0.76603L20.6127 3.62144L23.556 3.44571C24.0876 3.39803 24.5572 3.79037 24.6048 4.32195C24.6197 4.48818 24.5913 4.65551 24.5223 4.80745L23.4241 7.53111L25.9281 9.11256C26.4013 9.40845 26.5449 10.0319 26.249 10.505C26.1678 10.6349 26.0581 10.7446 25.9281 10.8259L23.4241 12.3634L24.5223 15.131C24.7442 15.6164 24.5306 16.1898 24.0452 16.4117C24.0146 16.4258 23.9832 16.4381 23.9512 16.4489H23.5559L20.6126 16.2293L19.8658 19.1287C19.7121 19.6651 19.1526 19.9755 18.6163 19.8218C18.4964 19.7874 18.3838 19.7311 18.2843 19.6558L16 17.7668L14.8579 18.7332Z" fill="#FFEB09"/>
<path d="M15.9999 14.9984C18.7901 14.9984 21.0519 12.7366 21.0519 9.94648C21.0519 7.15636 18.7901 4.89453 15.9999 4.89453C13.2098 4.89453 10.948 7.15636 10.948 9.94648C10.948 12.7366 13.2098 14.9984 15.9999 14.9984Z" fill="#F9B459"/>
</g>
<defs>
<clipPath id="clip0_545_12988">
<rect width="32" height="32" fill="white"/>
</clipPath>
</defs>
</svg>
