<svg width="32" height="32" viewBox="0 0 32 32" fill="none" xmlns="http://www.w3.org/2000/svg">
<g clip-path="url(#clip0_545_12982)">
<path d="M32.0001 12.9746L29.0996 29.4381H2.93617L0 12.9746H32.0001ZM19.2281 26.6801V24.2205C19.2294 23.4893 18.9395 22.7876 18.4223 22.2704C17.9053 21.7534 17.2036 21.4635 16.4722 21.4646H15.5276C14.7965 21.4635 14.095 21.7537 13.5778 22.2706C13.0608 22.7876 12.7707 23.4893 12.7718 24.2205V26.6801H19.2281ZM17.8698 18.3274C17.8688 17.4364 17.2393 16.67 16.3657 16.4963C15.4919 16.3226 14.617 16.7896 14.2753 17.6125C13.9337 18.4351 14.2201 19.3847 14.9599 19.8809C15.6998 20.3773 16.6869 20.2822 17.3187 19.654C17.6725 19.3035 17.8709 18.8257 17.8698 18.3274Z" fill="#F9B459"/>
<path d="M29.4701 5.65264V12.9749H26.8246V8.39906H5.17525V12.9749H2.80545L2.41333 2.66602H12.9756L16.0497 5.65264H29.4701Z" fill="#FFEB09"/>
<path d="M26.8247 12.9486V12.9743H5.17529V8.39844H26.8247V12.9486Z" fill="#20562C"/>
<path d="M19.228 24.2207V26.6804H12.7717V24.2207C12.7707 23.4896 13.0608 22.7879 13.5778 22.2709C14.095 21.7539 14.7965 21.4638 15.5276 21.4648H16.4722C17.2036 21.4638 17.9053 21.7537 18.4223 22.2706C18.9395 22.7879 19.2294 23.4896 19.228 24.2207Z" fill="#20562C"/>
<path d="M17.3185 17.0005C17.9522 17.6302 18.0528 18.6197 17.5582 19.3638C17.0639 20.1078 16.1125 20.3987 15.2867 20.0581C14.4607 19.7178 13.9908 18.841 14.1642 17.9648C14.3377 17.0883 15.1064 16.457 15.9997 16.457C16.4941 16.456 16.9685 16.6515 17.3185 17.0005Z" fill="#20562C"/>
</g>
<defs>
<clipPath id="clip0_545_12982">
<rect width="32" height="32" fill="white"/>
</clipPath>
</defs>
</svg>
