<svg width="32" height="32" viewBox="0 0 32 32" fill="none" xmlns="http://www.w3.org/2000/svg">
<g clip-path="url(#clip0_545_12979)">
<path d="M31.9728 16.1267C32.1685 19.0727 31.3025 21.9916 29.5317 24.354L31.9369 29.0685L24.6435 28.2812C23.3031 28.8953 21.8615 29.2582 20.3899 29.3517C17.8553 29.5271 15.328 28.9193 13.1505 27.61L13.1499 27.5963C18.6023 27.2877 23.2176 23.4614 24.5311 18.1605C25.8446 12.8595 23.5502 7.32125 18.8724 4.50219C25.6841 4.14079 31.5216 9.32052 31.9728 16.1267Z" fill="#F9B459"/>
<path d="M18.8725 4.50184C23.5502 7.3209 25.8447 12.8592 24.5312 18.1601C23.2176 23.4611 18.6024 27.2873 13.15 27.596C12.9118 27.6097 12.6722 27.6157 12.4314 27.6157C10.957 27.6188 9.49456 27.3518 8.11655 26.8278L0.890205 28.0946L2.97933 23.232C-0.175463 19.5379 -0.890568 14.345 1.14835 9.93572C3.18727 5.52615 7.60711 2.70766 12.4648 2.71878H12.4657C14.7236 2.71764 16.9391 3.33434 18.8719 4.50184H18.8725Z" fill="#20562C"/>
<path d="M17.6765 16.1382H7.21972C6.81639 16.1382 6.4895 15.8113 6.4895 15.408C6.4895 15.0046 6.81639 14.6777 7.21972 14.6777H17.6765C18.0798 14.6777 18.4067 15.0046 18.4067 15.408C18.4067 15.8113 18.0798 16.1382 17.6765 16.1382Z" fill="#FFEB09"/>
<path d="M17.6765 19.0776H7.21972C6.81639 19.0776 6.4895 18.7507 6.4895 18.3474C6.4895 17.9441 6.81639 17.6172 7.21972 17.6172H17.6765C18.0798 17.6172 18.4067 17.9441 18.4067 18.3474C18.4067 18.7507 18.0798 19.0776 17.6765 19.0776Z" fill="#FFEB09"/>
<path d="M11.7959 13.1968H7.21972C6.81639 13.1968 6.4895 12.8699 6.4895 12.4666C6.4895 12.0632 6.81639 11.7363 7.21972 11.7363H11.7959C12.1992 11.7363 12.5261 12.0632 12.5261 12.4666C12.5261 12.8699 12.1992 13.1968 11.7959 13.1968Z" fill="#FFEB09"/>
</g>
<defs>
<clipPath id="clip0_545_12979">
<rect width="32" height="32" fill="white"/>
</clipPath>
</defs>
</svg>
