<svg width="32" height="32" viewBox="0 0 32 32" fill="none" xmlns="http://www.w3.org/2000/svg">
<path d="M30.25 8.14062V23.9019C30.25 25.0406 29.37 25.9638 28.2844 25.9638H25.3213C25.3903 25.7992 25.4176 25.6201 25.4008 25.4424C25.3839 25.2647 25.3234 25.094 25.2246 24.9454C25.1259 24.7967 24.9919 24.6748 24.8346 24.5904C24.6773 24.5061 24.5016 24.4619 24.3231 24.4619H24.3119V21.0756L24.2875 21.0131L24.3119 21.0037L15.4531 17.7475L6.59438 21.0037L9.4675 22.1219V25.9638H3.71563C2.63 25.9638 1.75 25.0406 1.75 23.9019V8.14062H30.25Z" fill="#F9B459"/>
<path d="M30.25 4.09508V8.1407H1.75V4.09508C1.75 2.95633 2.63 2.0332 3.71563 2.0332H28.2844C29.37 2.0332 30.25 2.95633 30.25 4.09508Z" fill="#20562C"/>
<path d="M23.3251 25.9628C23.2564 25.7991 23.229 25.621 23.2453 25.4443C23.2616 25.2675 23.3211 25.0974 23.4186 24.9491C23.5161 24.8007 23.6486 24.6786 23.8044 24.5935C23.9601 24.5084 24.1345 24.4628 24.312 24.4609H24.3232C24.519 24.461 24.7111 24.5141 24.8791 24.6147C25.0471 24.7152 25.1846 24.8595 25.2771 25.032C25.3696 25.2046 25.4136 25.399 25.4044 25.5946C25.3951 25.7901 25.333 25.9795 25.2246 26.1426C25.1163 26.3057 24.9657 26.4363 24.789 26.5205C24.6122 26.6048 24.416 26.6396 24.2211 26.6211C24.0261 26.6027 23.8399 26.5317 23.6821 26.4158C23.5243 26.2999 23.4009 26.1433 23.3251 25.9628Z" fill="#20562C"/>
<path d="M24.3118 21.0762V24.4624C24.1343 24.4643 23.96 24.5098 23.8042 24.595C23.6484 24.6801 23.516 24.8022 23.4185 24.9506C23.321 25.0989 23.2615 25.269 23.2452 25.4458C23.2289 25.6225 23.2563 25.8006 23.325 25.9643H21.4387V22.1224L24.2875 21.0137L24.3118 21.0762Z" fill="#F9B459"/>
<path d="M9.46761 22.1224L6.59448 21.0043L15.4532 17.748L24.312 21.0043L24.2876 21.0137L21.4389 22.1224L15.4532 24.4524L9.46761 22.1224Z" fill="#20562C"/>
<path d="M21.4388 26.0215V28.8902C17.5777 30.3269 13.3286 30.3269 9.46753 28.8902V26.0215C13.3287 27.4577 17.5776 27.4577 21.4388 26.0215Z" fill="#20562C"/>
<path d="M21.4388 25.963V26.0198C17.5776 27.4561 13.3287 27.4561 9.46753 26.0198V22.1211L15.4532 24.4511L21.4388 22.1211V25.963Z" fill="#FFEB09"/>
<path d="M24.3118 24.8374C24.2123 24.8374 24.1169 24.7979 24.0466 24.7276C23.9763 24.6573 23.9368 24.5619 23.9368 24.4624V21.0762C23.9368 20.9767 23.9763 20.8813 24.0466 20.811C24.1169 20.7407 24.2123 20.7012 24.3118 20.7012C24.4112 20.7012 24.5066 20.7407 24.5769 20.811C24.6473 20.8813 24.6868 20.9767 24.6868 21.0762V24.4624C24.6868 24.5619 24.6473 24.6573 24.5769 24.7276C24.5066 24.7979 24.4112 24.8374 24.3118 24.8374Z" fill="#FFEB09"/>
<path d="M24.3231 27.0028C23.9375 27.0033 23.5675 26.851 23.294 26.5793C23.0205 26.3075 22.8658 25.9385 22.8638 25.5529C22.8618 25.1674 23.0126 24.7967 23.2833 24.5222C23.5539 24.2476 23.9224 24.0914 24.3079 24.0879H24.3231C24.7095 24.0883 25.08 24.242 25.3532 24.5153C25.6264 24.7885 25.7801 25.159 25.7806 25.5454C25.7806 25.7368 25.743 25.9264 25.6697 26.1032C25.5965 26.2801 25.4892 26.4408 25.3538 26.5761C25.2184 26.7115 25.0578 26.8188 24.8809 26.892C24.704 26.9653 24.5145 27.0029 24.3231 27.0029V27.0028ZM24.314 24.8378C24.1281 24.8409 23.9508 24.9167 23.8203 25.0489C23.6897 25.1812 23.6162 25.3594 23.6156 25.5453C23.6153 25.6392 23.634 25.7322 23.6705 25.8188C23.7199 25.9368 23.8005 26.0393 23.9036 26.1152C24.0066 26.1911 24.1284 26.2376 24.2558 26.2498C24.3833 26.2619 24.5116 26.2393 24.6272 26.1843C24.7428 26.1292 24.8413 26.0439 24.9122 25.9373C24.9831 25.8307 25.0237 25.7069 25.0298 25.5791C25.0359 25.4512 25.0072 25.3241 24.9468 25.2112C24.8863 25.0984 24.7964 25.0041 24.6865 24.9383C24.5767 24.8726 24.4511 24.8378 24.3231 24.8378H24.314Z" fill="#20562C"/>
<path d="M13.2157 3.75195C13.9394 3.75195 14.5257 4.36758 14.5257 5.12633C14.5257 5.88508 13.9394 6.50133 13.2157 6.50133C12.4919 6.50133 11.905 5.8857 11.905 5.12633C11.905 4.36695 12.4919 3.75195 13.2157 3.75195Z" fill="#F9B459"/>
<path d="M8.95687 3.75195C9.68062 3.75195 10.2675 4.36758 10.2675 5.12633C10.2675 5.88508 9.68062 6.50133 8.95687 6.50133C8.23312 6.50133 7.64624 5.8857 7.64624 5.12633C7.64624 4.36695 8.23312 3.75195 8.95687 3.75195Z" fill="#F9B459"/>
<path d="M4.69818 3.75195C5.42193 3.75195 6.00881 4.36758 6.00881 5.12633C6.00881 5.88508 5.42193 6.50133 4.69818 6.50133C3.97443 6.50133 3.38818 5.8857 3.38818 5.12633C3.38818 4.36695 3.97443 3.75195 4.69818 3.75195Z" fill="#F9B459"/>
</svg>
