<svg width="32" height="32" viewBox="0 0 32 32" fill="none" xmlns="http://www.w3.org/2000/svg">
<g clip-path="url(#clip0_545_12970)">
<path d="M21.3595 30.5894L16.788 27.1001V23.5244C16.788 23.0913 16.437 22.7402 16.0039 22.7402C15.5708 22.7402 15.2198 23.0913 15.2198 23.5244V27.0373L10.6091 30.5894C10.3448 30.7946 10.2397 31.145 10.3475 31.4617C10.4557 31.7784 10.7528 31.9919 11.0875 31.9929C11.2606 31.9922 11.4288 31.9344 11.5657 31.8281L15.9724 28.4407L20.4186 31.836C20.5549 31.9432 20.7233 32.0014 20.8967 32.0008C21.2367 32.0045 21.5396 31.7873 21.6453 31.4645C21.7513 31.1417 21.6355 30.7873 21.3595 30.5894Z" fill="#20562C"/>
<path d="M31.2943 1.85831V4.29704C31.2946 5.32773 30.4587 6.16362 29.428 6.16331H2.57193C1.54644 6.16117 0.715767 5.33018 0.713623 4.3047V1.85831C0.716686 0.830373 1.55165 -0.00122384 2.57989 1.35206e-06H29.428C30.4563 -0.00122384 31.2913 0.830373 31.2943 1.85831Z" fill="#20562C"/>
<path d="M29.3497 6.16406V21.2348C29.3503 22.4692 28.3493 23.4701 27.1149 23.4695H4.85388C3.6192 23.4701 2.61853 22.4692 2.61914 21.2348V6.16406H29.3497Z" fill="#F9B459"/>
<path d="M7.22186 11.5272H14.2789C14.7121 11.5272 15.0631 11.1762 15.0631 10.7431C15.0631 10.31 14.7121 9.95898 14.2789 9.95898H7.22186C6.78876 9.95898 6.43774 10.31 6.43774 10.7431C6.43774 11.1762 6.78876 11.5272 7.22186 11.5272Z" fill="#20562C"/>
<path d="M24.7862 13.8789H7.22186C6.78876 13.8789 6.43774 14.2299 6.43774 14.663C6.43774 15.0961 6.78876 15.4471 7.22186 15.4471H24.7862C25.2193 15.4471 25.5703 15.0961 25.5703 14.663C25.5703 14.2299 25.2193 13.8789 24.7862 13.8789Z" fill="#20562C"/>
<path d="M24.7862 17.8008H7.22186C6.78876 17.8008 6.43774 18.1518 6.43774 18.5849C6.43774 19.018 6.78876 19.369 7.22186 19.369H24.7862C25.2193 19.369 25.5703 19.018 25.5703 18.5849C25.5703 18.1518 25.2193 17.8008 24.7862 17.8008Z" fill="#20562C"/>
</g>
<defs>
<clipPath id="clip0_545_12970">
<rect width="32" height="32" fill="white"/>
</clipPath>
</defs>
</svg>
