<svg width="32" height="32" viewBox="0 0 32 32" fill="none" xmlns="http://www.w3.org/2000/svg">
<g clip-path="url(#clip0_545_12973)">
<path d="M30.0402 6.469V24.1819C30.0402 25.6978 28.8112 26.9268 27.2953 26.9268H22.6255V11.5417L15.7831 5.07323H8.96753V2.7449C8.96753 1.22904 10.1966 0 11.7124 0H23.0158V4.18516C23.0158 5.32226 23.9377 6.24383 25.0745 6.24383H29.7979L30.0402 6.469Z" fill="#F9B459"/>
<path d="M29.798 6.24383H25.0745C23.9377 6.24383 23.0159 5.32226 23.0159 4.18516V0H23.0689L29.798 6.24383Z" fill="#FFEB09"/>
<path d="M8.96751 5.07227H15.6014V9.64799C15.6014 10.7851 16.5229 11.7067 17.66 11.7067H22.6255V29.2542C22.6255 30.77 21.3965 31.9991 19.8806 31.9991H4.68826C3.1724 31.9991 1.94336 30.77 1.94336 29.2542V7.81716C1.94336 6.3013 3.1724 5.07227 4.68826 5.07227H8.96751Z" fill="#20562C"/>
<path d="M22.6255 11.5407V11.7067H17.66C16.5229 11.7067 15.6013 10.7851 15.6013 9.64799V5.07227H15.7831L22.6255 11.5407Z" fill="#FFEB09"/>
</g>
<defs>
<clipPath id="clip0_545_12973">
<rect width="32" height="32" fill="white"/>
</clipPath>
</defs>
</svg>
